<svg width="32" height="32" viewBox="0 0 32 32" fill="none" xmlns="http://www.w3.org/2000/svg">
<rect x="0.5" y="0.5" width="31" height="31" rx="15.5" fill="#FFEE58" stroke="#F6DD00"/>
<path d="M24.7489 19.6219L18.5205 9.11236C17.9053 8.0614 16.4443 7.68606 15.3678 8.28661C14.9833 8.51181 14.6758 8.81209 14.522 9.11236L8.29358 19.6219C7.67843 20.6729 8.0629 22.0992 9.13941 22.6997C9.52388 22.9249 9.90835 23 10.2928 23H22.6727C23.9799 23 24.9795 21.949 24.9795 20.748C25.0564 20.2975 24.9027 19.9222 24.7489 19.6219ZM16.5212 19.9973C16.0599 19.9973 15.7523 19.697 15.7523 19.2466C15.7523 18.7962 16.0599 18.4959 16.5212 18.4959C16.9826 18.4959 17.2902 18.7962 17.2902 19.2466C17.2902 19.697 16.9826 19.9973 16.5212 19.9973ZM17.2902 16.2439C17.2902 16.6943 16.9826 16.9945 16.5212 16.9945C16.0599 16.9945 15.7523 16.6943 15.7523 16.2439V13.2411C15.7523 12.7907 16.0599 12.4904 16.5212 12.4904C16.9826 12.4904 17.2902 12.7907 17.2902 13.2411V16.2439Z" fill="#303030"/>
</svg>
